<mxfile host="app.diagrams.net" modified="2020-09-16T11:55:34.884Z" agent="5.0 (Windows NT 10.0; Win64; x64) AppleWebKit/537.36 (KHTML, like Gecko) Chrome/85.0.4183.102 Safari/537.36" etag="4FW2jZPUcr2aNvg1XnfD" version="13.7.1" type="github">
  <diagram id="896UcBRLw2e_vGCE1Ktr" name="第 1 页">
    <mxGraphModel dx="1038" dy="580" grid="1" gridSize="10" guides="1" tooltips="1" connect="1" arrows="1" fold="1" page="1" pageScale="1" pageWidth="827" pageHeight="1169" math="0" shadow="0">
      <root>
        <mxCell id="0" />
        <mxCell id="1" parent="0" />
        <mxCell id="9d8WpRXyC0yOuNxem08t-4" value="" style="edgeStyle=orthogonalEdgeStyle;rounded=0;orthogonalLoop=1;jettySize=auto;html=1;" edge="1" parent="1" source="9d8WpRXyC0yOuNxem08t-1" target="9d8WpRXyC0yOuNxem08t-2">
          <mxGeometry relative="1" as="geometry">
            <Array as="points">
              <mxPoint x="370" y="190" />
              <mxPoint x="200" y="190" />
            </Array>
          </mxGeometry>
        </mxCell>
        <mxCell id="9d8WpRXyC0yOuNxem08t-8" value="" style="edgeStyle=orthogonalEdgeStyle;rounded=0;orthogonalLoop=1;jettySize=auto;html=1;" edge="1" parent="1" source="9d8WpRXyC0yOuNxem08t-1" target="9d8WpRXyC0yOuNxem08t-7">
          <mxGeometry relative="1" as="geometry">
            <Array as="points">
              <mxPoint x="400" y="200" />
              <mxPoint x="354" y="200" />
            </Array>
          </mxGeometry>
        </mxCell>
        <mxCell id="9d8WpRXyC0yOuNxem08t-10" value="" style="edgeStyle=orthogonalEdgeStyle;rounded=0;orthogonalLoop=1;jettySize=auto;html=1;" edge="1" parent="1" source="9d8WpRXyC0yOuNxem08t-1" target="9d8WpRXyC0yOuNxem08t-9">
          <mxGeometry relative="1" as="geometry" />
        </mxCell>
        <mxCell id="9d8WpRXyC0yOuNxem08t-1" value="Collection" style="rounded=0;whiteSpace=wrap;html=1;fillColor=#d5e8d4;strokeColor=#82b366;" vertex="1" parent="1">
          <mxGeometry x="354" y="80" width="120" height="60" as="geometry" />
        </mxCell>
        <mxCell id="9d8WpRXyC0yOuNxem08t-2" value="List" style="rounded=0;whiteSpace=wrap;html=1;fillColor=#d5e8d4;strokeColor=#82b366;" vertex="1" parent="1">
          <mxGeometry x="140" y="260" width="120" height="60" as="geometry" />
        </mxCell>
        <mxCell id="9d8WpRXyC0yOuNxem08t-7" value="Set" style="rounded=0;whiteSpace=wrap;html=1;fillColor=#d5e8d4;strokeColor=#82b366;" vertex="1" parent="1">
          <mxGeometry x="294" y="260" width="120" height="60" as="geometry" />
        </mxCell>
        <mxCell id="9d8WpRXyC0yOuNxem08t-9" value="Queue" style="rounded=0;whiteSpace=wrap;html=1;fillColor=#d5e8d4;strokeColor=#82b366;" vertex="1" parent="1">
          <mxGeometry x="440" y="260" width="120" height="60" as="geometry" />
        </mxCell>
      </root>
    </mxGraphModel>
  </diagram>
</mxfile>
